<?xml version="1.0" encoding="utf-8"?>
<!-- Generator: Adobe Illustrator 19.1.0, SVG Export Plug-In . SVG Version: 6.00 Build 0)  -->
<svg version="1.1" id="Layer_1" xmlns="http://www.w3.org/2000/svg" xmlns:xlink="http://www.w3.org/1999/xlink"
	 viewBox="-45 41 127 45">
<style type="text/css">
	.st0{fill:#FFFFFF;}
	path, circle
	{
	fill: #888 !important;
	}
</style>
<g>
  <title id="WPITitle">Worcester Polytechnic Institute</title>
  <desc id="WPIdesc">Worcester Polytechnic Institute footer logo</desc>
	<path id="XMLID_6600_" class="st0" d="M78.7,52.1l0.3,0V50H66v2.1l0.3,0c3.3,0.3,3.7,0.5,3.7,4.1v17.3c0,3.7-0.5,3.8-3.7,4.1
		l-0.3,0V80h13v-2.3l-0.3,0c-3.3-0.3-3.7-0.4-3.7-4.1V56.3C75,52.6,75.4,52.4,78.7,52.1z"/>
	<path id="XMLID_6597_" class="st0" d="M61.8,51.9C60.1,50.7,57.6,50,54,50H32v2.1c2,0.1,3.3,1,3.3,2.2c0,0.1,0,0.2,0,0.3
		c0,0.3-0.1,0.6-0.2,1c-0.6,2.6-2.6,10.1-4.3,15.7L23.3,51h-2.1l-6.5,20.2L9.9,54.4c0,0-0.9-2,3.1-2.3V50H0v2.1c0,0,3-0.1,3.9,2.5
		L11.7,80h2.3l6.7-20.3L28,80h2.3c3.8-13,6.4-20.8,7.3-23.3c0.6-1.7,1-2.7,1.6-3.4c0.7-0.7,1.8-1.1,2.9-1.1c2,0,3.8,1.3,3.8,2.8
		v18.5c0,3.7-0.5,3.8-3.7,4.1l-0.3,0V80h13v-2.3l-0.1,0c-3.7-0.3-3.9-0.4-3.9-4.1v-5.7c0,0.1,0.7,0.1,1,0.2c0.7,0.1,1.4,0.1,1.9,0.1
		c0.5,0,1.3,0,1.9-0.1c4.4-0.5,9.1-3.3,9.1-9.4C65,55.8,63.9,53.5,61.8,51.9z M53.5,65.8c-1.1,0-1.5-0.2-2.5-0.4V54.3
		c0-0.8,0.1-1.3,0.4-1.5c0.2-0.2,0.8-0.4,1.8-0.4c3.6,0,5.7,2.4,5.7,6.5C59,65.5,54.4,65.8,53.5,65.8z"/>
	<g id="XMLID_6461_" style="transform: translate(-65px,43px)">
		<path id="XMLID_6594_" class="st0" d="M41.8,0C30.4,0,21.1,9.3,21.1,20.7c0,11.4,9.3,20.7,20.7,20.7c11.4,0,20.7-9.3,20.7-20.7
			C62.5,9.3,53.2,0,41.8,0z M41.8,40.4c-10.9,0-19.7-8.8-19.7-19.7C22.1,9.8,30.9,1,41.8,1s19.7,8.8,19.7,19.7
			C61.5,31.6,52.7,40.4,41.8,40.4z"/>
		<g id="XMLID_6572_">
			<path id="XMLID_6591_" class="st0" d="M34.7,5.1c0.4,0.8,0.2,1.5-0.5,1.9c-0.7,0.4-1.4,0.1-1.8-0.6c-0.4-0.7-0.2-1.5,0.5-1.9
				C33.6,4.1,34.3,4.4,34.7,5.1z M32.9,6.1c0.3,0.5,0.7,0.7,1,0.5c0.4-0.2,0.4-0.7,0.1-1.1c-0.2-0.4-0.7-0.7-1-0.5
				C32.7,5.1,32.7,5.6,32.9,6.1z"/>
			<path id="XMLID_6589_" class="st0" d="M46.8,5.7c-0.1,0-0.4,0-0.7-0.1c-0.9-0.2-1.3-0.9-1.1-1.7c0.2-0.9,1-1.2,1.8-1
				c0.3,0.1,0.5,0.2,0.6,0.3l-0.2,0.4c-0.1-0.1-0.3-0.2-0.5-0.2c-0.5-0.1-0.9,0.1-1.1,0.7c-0.1,0.5,0.1,1,0.6,1.1
				c0.2,0,0.4,0.1,0.5,0L46.8,5.7z"/>
			<path id="XMLID_6587_" class="st0" d="M54.9,11.8c-0.1-0.1-0.3-0.2-0.5-0.5c-0.6-0.8-0.4-1.5,0.2-2c0.7-0.6,1.6-0.4,2.1,0.3
				c0.2,0.3,0.3,0.5,0.3,0.6l-0.5,0.2c0-0.1-0.1-0.3-0.2-0.5c-0.3-0.4-0.8-0.5-1.3-0.1c-0.4,0.3-0.5,0.8-0.2,1.2
				c0.1,0.2,0.3,0.3,0.4,0.4L54.9,11.8z"/>
			<path id="XMLID_6584_" class="st0" d="M31.1,7.9c0.1,0,0.1-0.1,0.2-0.1c0.3-0.2,0.5-0.5,0.5-0.8c0-0.2,0-0.5-0.2-0.7
				C31.4,6.1,31.1,6,30.9,6c-0.2,0-0.5,0.1-0.8,0.4c-0.3,0.2-0.5,0.4-0.6,0.6l1.7,2.1c0.2-0.1,0.3-0.3,0.5-0.4L31.1,7.9z M30.8,7.5
				l-0.5-0.6c0,0,0.1-0.1,0.2-0.2c0.2-0.2,0.5-0.2,0.6,0c0.2,0.2,0.1,0.5-0.1,0.7C30.9,7.5,30.8,7.5,30.8,7.5z"/>
			<path id="XMLID_6583_" class="st0" d="M37.5,5.6l-0.2-0.5l-1,0.4l-0.8-2.1c-0.2,0.1-0.4,0.2-0.6,0.2l0.9,2.6
				C36.4,5.9,36.9,5.7,37.5,5.6z"/>
			<path id="XMLID_6582_" class="st0" d="M38.3,5.4c0.2,0,0.4-0.1,0.6-0.1l-0.2-1.1l0.5-1.8c-0.2,0-0.4,0.1-0.7,0.1l-0.1,0.7
				c0,0.2-0.1,0.4-0.1,0.6l0,0c-0.1-0.2-0.2-0.3-0.3-0.5l-0.4-0.6c-0.2,0.1-0.4,0.1-0.7,0.2L38,4.3L38.3,5.4z"/>
			<path id="XMLID_6581_" class="st0" d="M50.6,7.7L51.1,7c0.3-0.4,0.5-0.7,0.7-1l0,0c-0.1,0.3-0.1,0.7-0.2,1.1l-0.2,1.2
				c0.2,0.1,0.3,0.3,0.5,0.4l1.6-2.3c-0.1-0.1-0.3-0.2-0.4-0.4l-0.5,0.7c-0.2,0.3-0.5,0.6-0.6,1l0,0c0.1-0.3,0.2-0.7,0.2-1l0.1-1.2
				c-0.2-0.1-0.4-0.3-0.6-0.4l-1.6,2.2C50.3,7.4,50.4,7.5,50.6,7.7z"/>
			<path id="XMLID_6580_" class="st0" d="M53,9.7l1.9-2c-0.1-0.1-0.3-0.3-0.4-0.4l-1.9,2C52.7,9.4,52.9,9.5,53,9.7z"/>
			<g id="XMLID_6577_">
				<path id="XMLID_6579_" class="st0" d="M44.2,5C44.2,5,44.2,5,44.2,5l0.1-0.4c0,0-0.6,0-1.1-0.1l0.1-0.6c0.3,0,0.7,0.1,1,0.1
					l0-0.5c-0.4,0-0.7-0.1-1-0.1l0.1-0.6c0,0,0.6,0.1,1.1,0.1l0-0.5c-0.6-0.1-1.1-0.1-1.7-0.2l-0.3,2.7C43.1,4.9,43.6,5,44.2,5z"/>
			</g>
			<g id="XMLID_6575_">
				<path id="XMLID_6576_" class="st0" d="M39.8,2.3l0,0.6c0.3,0,0.5-0.1,0.7-0.1L40.7,5c0.2,0,0.4,0,0.6,0l-0.1-2.2
					c0,0,0.3,0,0.8,0l0-0.6C41.2,2.2,40.5,2.2,39.8,2.3z"/>
			</g>
			<g id="XMLID_6573_">
				<path id="XMLID_6574_" class="st0" d="M50.1,4.1l-0.5,1c-0.4-0.2-0.7-0.3-0.9-0.4l0.5-1c-0.2-0.1-0.4-0.2-0.6-0.2L47.4,6
					c0.2,0.1,0.4,0.2,0.6,0.2l0.5-1c0.4,0.2,0.7,0.3,0.9,0.4l-0.5,1c0.2,0.1,0.4,0.2,0.6,0.3l1.2-2.5C50.5,4.3,50.3,4.2,50.1,4.1z"
					/>
			</g>
		</g>
		<g id="XMLID_6519_">
			<g id="XMLID_6556_">
				<path id="XMLID_6570_" class="st0" d="M58.1,18.9c-0.1,0.2-0.1,0.4-0.1,0.7c0,0.3,0.1,0.4,0.3,0.4c0.2,0,0.3-0.1,0.4-0.5
					c0.1-0.5,0.4-0.8,0.8-0.8c0.5,0,0.9,0.3,0.9,1c0,0.3,0,0.5-0.1,0.7l-0.5-0.1c0-0.1,0.1-0.3,0.1-0.6c0-0.3-0.2-0.4-0.3-0.4
					c-0.2,0-0.2,0.2-0.4,0.5c-0.2,0.5-0.4,0.7-0.8,0.8c-0.5,0-0.9-0.3-0.9-1.1c0-0.3,0-0.6,0.1-0.8L58.1,18.9z"/>
				<path id="XMLID_6568_" class="st0" d="M55.5,28.3c-0.4,0.6-0.2,1.2,0.5,1.6l1.4,0.8c0.1-0.2,0.2-0.4,0.3-0.5l-1.4-0.8
					c-0.4-0.2-0.5-0.5-0.4-0.8c0.2-0.3,0.5-0.3,0.9-0.1l1.4,0.8c0.1-0.2,0.2-0.4,0.3-0.6l-1.3-0.8C56.4,27.5,55.8,27.7,55.5,28.3z"
					/>
				<path id="XMLID_6567_" class="st0" d="M56.5,15L59,14c-0.1-0.2-0.2-0.4-0.2-0.6l-2.6,1.1C56.3,14.7,56.4,14.8,56.5,15z"/>
				<path id="XMLID_6566_" class="st0" d="M56.9,16.4l0.8-0.2c0.4-0.1,0.8-0.2,1.2-0.3l0,0c-0.3,0.2-0.6,0.5-0.8,0.7l-0.9,0.8
					c0,0.2,0.1,0.4,0.1,0.7l2.7-0.7c0-0.2-0.1-0.4-0.1-0.6L59.1,17c-0.4,0.1-0.8,0.2-1.1,0.3l0,0c0.3-0.2,0.6-0.4,0.8-0.7l0.9-0.8
					c-0.1-0.2-0.1-0.5-0.2-0.7l-2.7,0.7C56.8,16,56.9,16.2,56.9,16.4z"/>
				<path id="XMLID_6565_" class="st0" d="M57.2,23.7c0,0.2-0.1,0.4-0.1,0.6l2.7,0.6c0-0.2,0.1-0.4,0.1-0.6L57.2,23.7z"/>
				<g id="XMLID_6563_">
					<path id="XMLID_6564_" class="st0" d="M56.8,31.5l-0.4-0.4c-0.1,0.2-0.3,0.4-0.4,0.6l-1.7-1.4c-0.1,0.2-0.3,0.3-0.4,0.5
						l1.7,1.4c0,0-0.2,0.3-0.5,0.6l0.4,0.4C56,32.6,56.4,32,56.8,31.5z"/>
				</g>
				<g id="XMLID_6561_">
					<path id="XMLID_6562_" class="st0" d="M51.7,32.9C51.7,32.9,51.7,32.9,51.7,32.9l0.3,0.4c0,0,0.5-0.4,0.9-0.7l0.4,0.5
						c-0.2,0.2-0.5,0.5-0.8,0.7l0.3,0.4c0.3-0.2,0.6-0.5,0.8-0.7l0.4,0.4c0,0-0.4,0.4-0.8,0.7l0.4,0.4c0.4-0.4,0.9-0.7,1.3-1.1
						L53,31.8C52.6,32.2,52.1,32.6,51.7,32.9z"/>
				</g>
				<g id="XMLID_6559_">
					<path id="XMLID_6560_" class="st0" d="M59.6,25.8L59,25.6c-0.1,0.2-0.2,0.5-0.2,0.7l-2.1-0.7c-0.1,0.2-0.1,0.4-0.2,0.6l2.1,0.7
						c0,0-0.1,0.3-0.3,0.7l0.5,0.2C59.2,27.2,59.4,26.5,59.6,25.8z"/>
				</g>
				<g id="XMLID_6557_">
					<path id="XMLID_6558_" class="st0" d="M60.3,21.3l-0.6-0.1c0,0.3,0,0.5,0,0.7l-2.2-0.2c0,0.2,0,0.4-0.1,0.6l2.2,0.2
						c0,0,0,0.3-0.1,0.7l0.6,0.1C60.2,22.7,60.3,22,60.3,21.3z"/>
				</g>
			</g>
			<g id="XMLID_6535_">
				<path id="XMLID_6554_" class="st0" d="M26.2,23.1c0.1,0.1,0.2,0.3,0.3,0.7c0.2,0.9-0.3,1.5-1,1.7c-0.9,0.2-1.6-0.3-1.8-1.2
					c-0.1-0.3-0.1-0.6,0-0.7l0.5,0c0,0.1,0,0.3,0,0.5c0.1,0.5,0.5,0.8,1.1,0.7c0.5-0.1,0.8-0.5,0.7-1.1c0-0.2-0.1-0.4-0.2-0.5
					L26.2,23.1z"/>
				<path id="XMLID_6551_" class="st0" d="M26.4,27.3l-0.1-0.2c-0.1-0.2-0.1-0.4,0.2-0.6c0.2-0.1,0.3-0.3,0.5-0.4
					c-0.1-0.2-0.1-0.4-0.2-0.6c-0.2,0.2-0.5,0.4-0.7,0.5c-0.2,0.2-0.3,0.3-0.3,0.5l0,0c-0.2-0.2-0.5-0.3-0.8-0.2
					c-0.2,0.1-0.4,0.3-0.4,0.5c-0.1,0.2,0,0.5,0.1,0.9c0.1,0.3,0.3,0.6,0.4,0.7l2.5-1c-0.1-0.2-0.2-0.4-0.3-0.6L26.4,27.3z
					 M25.3,27.7c0,0-0.1-0.1-0.1-0.3c-0.1-0.3-0.1-0.5,0.2-0.6c0.2-0.1,0.4,0,0.6,0.3l0.1,0.2L25.3,27.7z"/>
				<g id="XMLID_6549_">
					<path id="XMLID_6550_" class="st0" d="M26,20.7L26,20.7l-0.5,0c0,0,0,0.6,0.1,1.1l-0.6,0c0-0.3,0-0.7,0-1l-0.5,0
						c0,0.4,0,0.7,0,1l-0.6,0c0,0,0-0.6,0-1.1l-0.5,0c0,0.6,0,1.1,0.1,1.7l2.7-0.2C26.1,21.9,26,21.3,26,20.7z"/>
				</g>
				<path id="XMLID_6546_" class="st0" d="M26.7,28.8c0.8-0.5,1.5-0.3,2,0.4c0.4,0.7,0.2,1.4-0.5,1.9c-0.7,0.4-1.5,0.3-1.9-0.4
					C25.7,29.9,26,29.2,26.7,28.8z M27.8,30.5c0.5-0.3,0.6-0.7,0.4-1.1C28,29,27.5,29,27.1,29.3c-0.4,0.3-0.7,0.7-0.4,1.1
					C26.9,30.8,27.3,30.7,27.8,30.5z"/>
				<path id="XMLID_6544_" class="st0" d="M25.5,19.9c0.1-0.2,0.2-0.4,0.2-0.7c0-0.3-0.1-0.4-0.3-0.5c-0.2,0-0.3,0.1-0.4,0.4
					c-0.2,0.4-0.5,0.7-0.9,0.7c-0.5,0-0.8-0.5-0.7-1.1c0-0.3,0.1-0.5,0.2-0.7l0.5,0.2c-0.1,0.1-0.2,0.3-0.2,0.6
					c0,0.3,0.1,0.4,0.2,0.4c0.2,0,0.3-0.1,0.4-0.5c0.2-0.5,0.5-0.7,0.9-0.6c0.5,0,0.8,0.4,0.7,1.2c0,0.3-0.1,0.6-0.2,0.8L25.5,19.9z
					"/>
				<path id="XMLID_6541_" class="st0" d="M27.6,11.8l0.1-0.2c0.1-0.2,0.3-0.3,0.6-0.1c0.2,0.1,0.4,0.1,0.6,0.2
					c0.1-0.2,0.3-0.4,0.4-0.5c-0.3-0.1-0.5-0.2-0.8-0.2c-0.3-0.1-0.5-0.1-0.6,0l0,0c0.1-0.2,0-0.6-0.3-0.8c-0.2-0.1-0.4-0.2-0.6-0.1
					c-0.2,0.1-0.4,0.3-0.7,0.6c-0.2,0.3-0.3,0.5-0.4,0.7l2.3,1.5c0.1-0.2,0.2-0.4,0.3-0.5L27.6,11.8z M27.3,11.4l-0.1,0.2l-0.6-0.4
					c0,0,0.1-0.1,0.1-0.2c0.2-0.2,0.4-0.3,0.6-0.2C27.5,10.9,27.5,11.1,27.3,11.4z"/>
				<path id="XMLID_6540_" class="st0" d="M30.9,32l-1,0.6c-0.2,0.1-0.5,0.3-0.7,0.5l0,0c0.2-0.2,0.4-0.5,0.5-0.7l0.7-1
					c-0.2-0.2-0.3-0.3-0.5-0.5l-2.4,1.4c0.1,0.2,0.3,0.3,0.4,0.5l1-0.6c0.3-0.2,0.6-0.4,0.8-0.6l0,0c-0.2,0.2-0.4,0.5-0.6,0.8
					l-0.7,1c0.1,0.2,0.3,0.3,0.5,0.5l1-0.6c0.3-0.2,0.6-0.4,0.8-0.6l0,0c-0.2,0.2-0.4,0.5-0.6,0.8l-0.7,0.9c0.2,0.1,0.3,0.3,0.5,0.4
					l1.5-2.4C31.3,32.4,31.1,32.2,30.9,32z"/>
				<g id="XMLID_6538_">
					<path id="XMLID_6539_" class="st0" d="M27.8,13.6C27.8,13.5,27.8,13.5,27.8,13.6l-0.5-0.2c0,0-0.3,0.6-0.5,1l-0.6-0.3
						c0.1-0.2,0.3-0.6,0.4-0.9L26.2,13c-0.2,0.3-0.3,0.7-0.4,0.9l-0.5-0.2c0,0,0.2-0.5,0.5-1l-0.5-0.2c-0.3,0.5-0.5,1-0.7,1.6
						l2.5,1.1C27.3,14.6,27.5,14.1,27.8,13.6z"/>
				</g>
				<g id="XMLID_6536_">
					<path id="XMLID_6537_" class="st0" d="M23.7,17l0.5,0.1c0.1-0.2,0.1-0.5,0.2-0.7l2.1,0.6c0-0.2,0.1-0.4,0.2-0.6l-2.1-0.6
						c0,0,0.1-0.3,0.2-0.7L24.2,15C24,15.7,23.8,16.4,23.7,17z"/>
				</g>
			</g>
			<g id="XMLID_6520_">
				<g id="XMLID_6523_">
					<path id="XMLID_6533_" class="st0" d="M38,36.6L38,36.6l-0.6,0.1l0-0.5l0.8-0.2l0.5,0.1l-0.6,2.6l-0.6-0.1L38,36.6z"/>
					<path id="XMLID_6529_" class="st0" d="M40,37.7c0-0.2-0.5-0.4-0.5-0.6c0-0.4,0.4-0.7,0.9-0.7c0.6,0.1,0.8,0.4,0.8,0.8
						c0,0.2-0.2,0.4-0.5,0.5l0,0c0.3,0.1,0.5,0.4,0.4,0.7c0,0.5-0.5,0.8-1.1,0.7c-0.7-0.1-0.8-0.5-0.8-0.8C39.4,38,39,37.8,40,37.7
						L40,37.7z M40.6,38.4c0-0.2-0.1-0.4-0.4-0.5c-0.2,0-0.3,0.2-0.4,0.4c0,0.2,0.1,0.4,0.3,0.4C40.4,38.7,40.6,38.6,40.6,38.4z
						 M40,37.1c0,0.2,0.1,0.3,0.3,0.4c0.1,0,0.3-0.1,0.3-0.3c0-0.2-0.1-0.3-0.3-0.4C40.1,36.8,40,36.9,40,37.1z"/>
					<path id="XMLID_6526_" class="st0" d="M43.7,36.9c-0.1,0-0.1,0-0.2,0c-0.5,0.1-0.8,0.4-0.8,0.7l0,0c0.1-0.1,0.3-0.2,0.6-0.2
						c0.4,0,0.8,0.3,0.9,0.8c0,0.5-0.3,1-0.9,1c-0.7,0-1.1-0.5-1.1-1.1c0-0.5,0.1-0.9,0.4-1.2c0.2-0.3,0.6-0.4,1-0.5
						c0.1,0,0.2,0,0.2,0L43.7,36.9z M43.4,38.2c0-0.2-0.2-0.4-0.4-0.4c-0.2,0-0.3,0.1-0.3,0.3c0,0,0,0.1,0,0.2
						c0,0.3,0.2,0.5,0.5,0.5C43.3,38.7,43.4,38.5,43.4,38.2z"/>
					<path id="XMLID_6524_" class="st0" d="M46.1,36.5l-1,0.2l0,0.4c0.1,0,0.1,0,0.2,0c0.2-0.1,0.5-0.1,0.7,0
						c0.2,0.1,0.4,0.3,0.5,0.6c0.1,0.5-0.2,1-0.9,1.2c-0.3,0.1-0.6,0.1-0.8,0l0-0.5c0.1,0,0.4,0.1,0.6,0c0.3-0.1,0.5-0.2,0.4-0.5
						c-0.1-0.3-0.3-0.4-0.8-0.3c-0.1,0-0.2,0.1-0.3,0.1l-0.1-1.4L46,36L46.1,36.5z"/>
				</g>
				<circle id="XMLID_6522_" class="st0" cx="33.7" cy="35.8" r="0.5"/>
				<circle id="XMLID_6521_" class="st0" cx="49.7" cy="35.8" r="0.5"/>
			</g>
		</g>
		<g id="XMLID_6514_">
			<path id="XMLID_6518_" class="st0" d="M38,17.6v2.7c0-0.1,0.7-0.1,1.2,0.1c0.5,0.2,0.8,0.1,0.8,0v-2.9c0,0.1-0.6,0.2-1,0
				C38.3,17.3,38,17.5,38,17.6z"/>
			<path id="XMLID_6517_" class="st0" d="M36,17.5c-0.5,0.2-1,0.1-1,0v2.9c0,0.1,0.3,0.1,0.8,0c0.5-0.2,1.2-0.2,1.2-0.1v-2.7
				C37,17.5,36.7,17.3,36,17.5z"/>
			<path id="XMLID_6516_" class="st0" d="M46,17.6v2.7c0-0.1,1.2-0.1,1.7,0.1c0.5,0.2,0.3,0.1,1.3,0v-2.9c-1,0.1-1.1,0.2-1.5,0
				C46.8,17.3,46,17.5,46,17.6z"/>
			<path id="XMLID_6515_" class="st0" d="M45,17.6c-0.5,0.2-1,0.1-1,0v2.9c0,0.1,0.4,0.1,0.8,0c0.5-0.2,1.2-0.2,1.2-0.1v-2.7
				C46,17.5,45.7,17.3,45,17.6z"/>
		</g>
		<g id="XMLID_6497_">
			<path id="XMLID_6513_" class="st0" d="M42.8,27c0.8,0,0.9-1.2,0.9-1.2l0.3-0.1v-0.1c0-0.5-0.8-1.1-1.3-1.5
				c-0.3-0.3-0.4-0.5-0.3-0.7l0.1,0c0.1,0,0.2-0.1,0.3,0c0.1,0.1,0.1,0,0.1,0c0.1,0,0.1-0.2,0-0.4c-0.1-0.2-0.2-0.3-0.3-0.2
				c0,0,0,0-0.1,0.1c0,0.1-0.1,0.1-0.2,0.2L42.1,23c0,0,0,0,0,0c-0.3-0.1-0.3,0-0.3,0c-0.3-0.1-0.3,0.1-0.3,0.1
				c-0.3-0.1-0.3,0.1-0.3,0.1c-0.4,0-0.3,0.2-0.3,0.3l-0.4,0.2l-0.2-0.4l-0.8,0.3l0.5,1.1l0.3,0.1l0.3-0.1l0.1-0.3l-0.2-0.3l0.3-0.2
				c0,0.1,0.1,0.2,0.4,0.2c0.3,0,0.4-0.1,0.7,0.5c0.3,0.6,0.6,0.8,0.6,0.8c-0.6-0.1-0.8,0.4-0.8,0.4c-1,0-1.2,1.1-1.2,1.1h-1.3
				c0.1,0,0.2,0,0.2,1h4.3c0.1-1,0.2-1,0.2-1H42.8z"/>
			<g id="XMLID_6506_">
				<g id="XMLID_6508_">
					<path id="XMLID_6512_" class="st0" d="M37.9,28c0.1-0.3,0.1-0.6-0.1-0.9c-0.2,0.1-0.4,0.3-0.5,0.5c0.1,0.3,0.2,0.5,0.3,0.7
						C37.8,28.2,37.8,28.1,37.9,28z"/>
					<path id="XMLID_6511_" class="st0" d="M38.6,29.1c0.1-0.3,0-0.6-0.2-0.9c-0.2,0.1-0.4,0.4-0.5,0.7c0.2,0.3,0.3,0.5,0.4,0.7
						C38.5,29.4,38.6,29.3,38.6,29.1z"/>
					<path id="XMLID_6510_" class="st0" d="M37.3,26.6c0.1-0.3,0.2-0.6,0.1-0.9c-0.2,0.1-0.4,0.2-0.5,0.4c0.1,0.3,0.1,0.5,0.2,0.8
						C37.2,26.8,37.3,26.7,37.3,26.6z"/>
					<path id="XMLID_6509_" class="st0" d="M37,25.1c0.2-0.2,0.2-0.5,0.2-0.8c-0.2,0-0.4,0.1-0.5,0.2c0,0.3,0,0.6,0.1,0.8
						C36.8,25.3,36.9,25.2,37,25.1z"/>
				</g>
				<path id="XMLID_6507_" class="st0" d="M38.9,30.4c-2.2-2.3-2.7-4.9-2.7-6.3l-0.2,0v0c1-0.2,0.5-0.4,0.5-0.6
					c0.1-0.3,0.1-0.7-0.1-1C36.2,22.7,36,23,36,23.3c0,0.3,0,0.6,0.2,0.9c0,0.2,0,0.4-0.1,0.7c0-0.1,0-0.1-0.1-0.2
					c-0.2-0.3-0.4-0.5-0.7-0.6c-0.1,0.3,0,0.6,0.1,0.9c0.1,0.2,0.4,0.5,0.7,0.6c0,0.2,0,0.5,0.1,0.7c0,0,0-0.1-0.1-0.1
					c-0.2-0.2-0.5-0.4-0.8-0.4c0,0.3,0.1,0.6,0.3,0.9c0.2,0.2,0.5,0.4,0.8,0.4c0.1,0.2,0.2,0.5,0.3,0.7c0,0-0.1-0.1-0.1-0.1
					c-0.2-0.2-0.5-0.3-0.8-0.3c0,0.3,0.2,0.6,0.5,0.8c0.2,0.2,0.5,0.3,0.8,0.3c0.1,0.2,0.2,0.4,0.4,0.6c0,0-0.1-0.1-0.1-0.1
					c-0.3-0.2-0.6-0.2-0.9-0.1c0.1,0.3,0.3,0.6,0.6,0.8c0.2,0.1,0.4,0.2,0.6,0.1c0.1,0,0.2,0,0.2,0c0.3,0.5,0.7,0.9,1.1,1.3
					C38.8,30.8,38.8,30.6,38.9,30.4z"/>
			</g>
			<g id="XMLID_6499_">
				<g id="XMLID_6501_">
					<path id="XMLID_6505_" class="st0" d="M45.8,28.3c0.1-0.2,0.2-0.5,0.3-0.7c-0.1-0.2-0.3-0.4-0.5-0.5c-0.1,0.3-0.1,0.6-0.1,0.9
						C45.7,28.1,45.7,28.2,45.8,28.3z"/>
					<path id="XMLID_6504_" class="st0" d="M45.1,29.5c0.1-0.2,0.3-0.4,0.4-0.7c-0.1-0.3-0.2-0.5-0.5-0.7c-0.2,0.3-0.2,0.6-0.2,0.9
						C44.9,29.3,45,29.4,45.1,29.5z"/>
					<path id="XMLID_6503_" class="st0" d="M46.4,26.9c0.1-0.3,0.2-0.5,0.2-0.8c-0.1-0.2-0.3-0.3-0.5-0.4C46,26,46,26.3,46.2,26.6
						C46.2,26.7,46.3,26.8,46.4,26.9z"/>
					<path id="XMLID_6502_" class="st0" d="M46.8,25.4c0-0.3,0.1-0.6,0.1-0.8c-0.1-0.1-0.3-0.2-0.5-0.2c-0.1,0.3,0,0.6,0.2,0.8
						C46.6,25.2,46.7,25.3,46.8,25.4z"/>
				</g>
				<path id="XMLID_6500_" class="st0" d="M44.6,31c0.4-0.4,0.7-0.8,1.1-1.3c0.1,0,0.2,0,0.2,0c0.2,0,0.4,0,0.6-0.1
					c0.3-0.2,0.5-0.4,0.6-0.8c-0.3-0.1-0.6-0.1-0.9,0.1c0,0-0.1,0.1-0.1,0.1c0.1-0.2,0.2-0.4,0.4-0.6c0.3,0,0.6-0.1,0.8-0.3
					c0.2-0.2,0.4-0.5,0.5-0.8c-0.3,0-0.6,0.1-0.8,0.3c0,0-0.1,0.1-0.1,0.1c0.1-0.2,0.2-0.5,0.3-0.7c0.3,0,0.6-0.2,0.8-0.4
					c0.2-0.2,0.3-0.6,0.3-0.9c-0.3,0-0.6,0.2-0.8,0.4c0,0-0.1,0.1-0.1,0.1c0-0.2,0.1-0.5,0.1-0.7c0.2-0.1,0.5-0.4,0.7-0.6
					c0.2-0.3,0.2-0.6,0.1-0.9c-0.3,0.1-0.6,0.3-0.7,0.6c0,0.1-0.1,0.1-0.1,0.2c0-0.2,0-0.4-0.1-0.7c0.1-0.3,0.2-0.6,0.2-0.9
					c-0.1-0.3-0.2-0.6-0.5-0.8c-0.2,0.3-0.3,0.6-0.3,1c0,0.2,0.3,0.5,0.3,0.6v0l0.1,0c0,1.4-0.3,4-2.5,6.3
					C44.6,30.6,44.7,30.8,44.6,31z"/>
			</g>
			<path id="XMLID_6498_" class="st0" d="M39.6,30c0,0.1,0,0.1,0,0.2c0,0,0,0.1,0,0.1c0.1,0.3,0.2,0.5,0.3,0.7
				c0.3,0.5,0.8,1.1,1.8,1.7c0.3-0.2,0.6-0.5,0.9-0.7c0.5-0.5,1-1,1.2-1.7c0,0,0,0,0,0c0-0.1,0.1-0.3,0.1-0.3c0-0.3-0.1-0.7-0.3-1
				c-0.4-0.5-1.2-0.5-1.6,0c-0.1,0.1-0.2,0.2-0.2,0.3c-0.1-0.1-0.1-0.2-0.2-0.3c-0.4-0.5-1.2-0.5-1.6,0C39.7,29.2,39.6,29.5,39.6,30
				C39.6,29.9,39.6,29.9,39.6,30C39.6,30,39.6,30,39.6,30z"/>
		</g>
		<path id="XMLID_6467_" class="st0" d="M34.5,13.8l0.6-0.1v-0.2l-0.4,0.1v-1.1l-0.3,0.1V13.8z M35.8,12.6l-0.3,0.1v-0.3l0.3-0.1
			v-0.2l-0.6,0.2v1.3l0.6-0.2v-0.2l-0.3,0.1V13l0.3-0.1V12.6z M36,12v1.3l0.2-0.1v-0.5l0.3-0.1v0.5l0.2-0.1v-1.3l-0.2,0.1v0.5
			l-0.3,0.1v-0.5L36,12z M37,12.9l0.3-0.1v-0.5l0,0c0.1,0,0.1,0,0.1,0.1c0,0.1,0,0.3,0.1,0.3l0.3-0.1c0,0-0.1-0.2-0.1-0.3
			c0-0.1-0.1-0.2-0.2-0.2v0c0.1-0.1,0.2-0.3,0.2-0.4c0-0.1,0-0.2-0.1-0.2c-0.1,0-0.2,0-0.3,0c-0.1,0-0.2,0.1-0.3,0.1V12.9z
			 M37.3,11.7C37.3,11.7,37.3,11.6,37.3,11.7c0.2-0.1,0.2,0,0.2,0.1c0,0.1-0.1,0.2-0.2,0.3l0,0V11.7z M45.6,12.4l0.3,0.1v-0.4
			l0.1-0.1l0.2,0.6l0.3,0.1L46,11.9l0.3-0.4l-0.3-0.1l-0.2,0.3c0,0,0,0.1-0.1,0.1l0,0v-0.6l-0.3-0.1V12.4z M46.4,11.5v0.8
			c0,0.3,0.1,0.6,0.4,0.7c0.2,0.1,0.4,0,0.4-0.3v-0.8l-0.2-0.1v0.8c0,0.2-0.1,0.2-0.1,0.2c-0.1,0-0.1-0.1-0.1-0.3v-0.8L46.4,11.5z
			 M47.6,13.3V13c0-0.3,0-0.5,0-0.6l0,0c0,0.1,0.1,0.3,0.1,0.4l0.2,0.6l0.2,0.1v-1.3l-0.2-0.1v0.3c0,0.2,0,0.5,0,0.6l0,0
			c0-0.1-0.1-0.3-0.1-0.4L47.6,12l-0.2-0.1v1.3L47.6,13.3z M48.3,13.5c0,0,0.2,0.1,0.3,0.1c0.3,0.1,0.4,0,0.4-0.3
			c0-0.1-0.1-0.3-0.2-0.4c-0.1-0.1-0.2-0.2-0.2-0.3c0-0.1,0.1-0.1,0.2-0.1c0.1,0,0.1,0.1,0.2,0.1l0-0.2c0,0-0.1-0.1-0.2-0.1
			c-0.3-0.1-0.4,0.1-0.4,0.3c0,0.1,0.1,0.3,0.3,0.4c0.1,0.1,0.2,0.2,0.2,0.3c0,0.1-0.1,0.1-0.2,0.1c-0.1,0-0.2-0.1-0.2-0.1
			L48.3,13.5z M49.3,13.8l0.3,0v-1.1l0.2,0v-0.2l-0.8-0.1v0.2l0.2,0V13.8z M40.2,13.2V14c0,0.4,0.1,0.6,0.5,0.6
			c0.3,0,0.5-0.2,0.5-0.5v-0.9l-0.3,0v0.9c0,0.2-0.1,0.3-0.2,0.3c-0.1,0-0.1-0.1-0.1-0.3v-0.9L40.2,13.2z M41.6,14.7v-0.3
			c0-0.3,0-0.5,0-0.7h0c0,0.1,0.1,0.3,0.2,0.4l0.2,0.5l0.3,0v-1.4l-0.3,0v0.3c0,0.3,0,0.5,0,0.7h0c0-0.1-0.1-0.3-0.2-0.4l-0.2-0.6
			l-0.3,0v1.4L41.6,14.7z M42.6,14.7c0.1,0,0.2,0,0.3,0c0.2,0,0.4-0.1,0.5-0.2c0.1-0.1,0.2-0.3,0.2-0.6c0-0.3-0.1-0.5-0.2-0.6
			c-0.1-0.1-0.2-0.1-0.4-0.1c-0.1,0-0.2,0-0.3,0.1V14.7z M42.9,13.4C42.9,13.4,42.9,13.4,42.9,13.4c0.2,0,0.3,0.1,0.3,0.4
			c0,0.4-0.1,0.5-0.3,0.6c0,0,0,0-0.1,0V13.4z"/>
		<path id="XMLID_6462_" class="st0" d="M41.7,6.2c-8,0-14.6,6.5-14.6,14.5s6.5,14.6,14.6,14.6c8,0,14.5-6.5,14.5-14.6
			S49.8,6.2,41.7,6.2z M34.5,11l0.5,0.9c0.4-0.1,0.8-0.4,1.2-0.7c2.7-1.5,4.2-1.2,4.2-0.5c0,0.6-2,0.5-2,1.2c0,0.4,1.5,0.7,3.3,0.7
			c1.8,0,3.3-0.4,3.3-0.8c0-0.8-2-0.6-2-1.3c0-0.6,1.5-1,4.2,0.5c0.4,0.2,0.8,0.4,1.2,0.6l0.5-1.2v0.2V11h2.6l-0.6,0.8
			c0.3,0.3,0.4,0.4,0.4,0.4l0-0.1l-1.8,2.4c-1.2-0.1-2.2-0.6-2.2-0.6l-0.1,0C46.5,13.5,46,13.2,45,13v1.4c0,0.4-1.6,0.8-3.5,0.8
			c-1.9,0-3.5-0.3-3.5-0.8V13c0,0.1-1.1,0.4-2,0.9c-1,0.4-1.6,0.6-2.1,0.6l-1.8-2.4c0,0,0.2,0,0.5-0.3L32,11H34.5z M41.8,34.4
			c-4.7-2.6-8.2-6.4-9.5-12.4h19C49.9,28,46.4,31.7,41.8,34.4z M51.4,22H32.1c-0.3-2-0.5-3.1-0.5-4.6c0-0.6,0-1.3,0.1-1.9
			c0.2,0.1,0.6,0.5,1.6,0.5H39c2.4,0,2.8,0.8,2.8,0.8s0.4-0.8,2.8-0.8h5.7c1,0,1.4-0.4,1.6-0.5c0.1,0.6,0.1,1.3,0.1,1.9
			C51.9,18.9,51.7,20,51.4,22z"/>
	</g>
</g>
</svg>
